<svg width="21" height="22" viewBox="0 0 21 22" fill="none" xmlns="http://www.w3.org/2000/svg">
<path d="M9.75 10.25H6V11.75H9.75V15.5H11.25V11.75H15V10.25H11.25V6.5H9.75V10.25ZM10.5 0.5C9.53125 0.5 8.60156 0.625 7.71094 0.875C6.82031 1.125 5.98438 1.47656 5.20312 1.92969C4.42188 2.38281 3.71484 2.92969 3.08203 3.57031C2.44922 4.21094 1.90234 4.91797 1.44141 5.69141C0.980469 6.46484 0.625 7.30078 0.375 8.19922C0.125 9.09766 0 10.0312 0 11C0 11.9688 0.125 12.8984 0.375 13.7891C0.625 14.6797 0.976562 15.5156 1.42969 16.2969C1.88281 17.0781 2.42969 17.7852 3.07031 18.418C3.71094 19.0508 4.41797 19.5977 5.19141 20.0586C5.96484 20.5195 6.80078 20.875 7.69922 21.125C8.59766 21.375 9.53125 21.5 10.5 21.5C11.4688 21.5 12.3984 21.375 13.2891 21.125C14.1797 20.875 15.0156 20.5234 15.7969 20.0703C16.5781 19.6172 17.2852 19.0703 17.918 18.4297C18.5508 17.7891 19.0977 17.082 19.5586 16.3086C20.0195 15.5352 20.375 14.6992 20.625 13.8008C20.875 12.9023 21 11.9688 21 11C21 10.0312 20.875 9.10156 20.625 8.21094C20.375 7.32031 20.0234 6.48438 19.5703 5.70312C19.1172 4.92188 18.5703 4.21484 17.9297 3.58203C17.2891 2.94922 16.582 2.40234 15.8086 1.94141C15.0352 1.48047 14.1992 1.125 13.3008 0.875C12.4023 0.625 11.4688 0.5 10.5 0.5ZM10.5 20C9.67188 20 8.875 19.8945 8.10938 19.6836C7.34375 19.4727 6.62891 19.168 5.96484 18.7695C5.30078 18.3711 4.69141 17.9023 4.13672 17.3633C3.58203 16.8242 3.11328 16.2188 2.73047 15.5469C2.34766 14.875 2.04688 14.1562 1.82812 13.3906C1.60938 12.625 1.5 11.8281 1.5 11C1.5 10.1719 1.60547 9.375 1.81641 8.60938C2.02734 7.84375 2.33203 7.12891 2.73047 6.46484C3.12891 5.80078 3.59766 5.19141 4.13672 4.63672C4.67578 4.08203 5.28125 3.61328 5.95312 3.23047C6.625 2.84766 7.34375 2.54688 8.10938 2.32812C8.875 2.10938 9.67188 2 10.5 2C11.3281 2 12.125 2.10547 12.8906 2.31641C13.6562 2.52734 14.3711 2.83203 15.0352 3.23047C15.6992 3.62891 16.3086 4.09766 16.8633 4.63672C17.418 5.17578 17.8867 5.78125 18.2695 6.45312C18.6523 7.125 18.9531 7.84375 19.1719 8.60938C19.3906 9.375 19.5 10.1719 19.5 11C19.5 11.8281 19.3945 12.625 19.1836 13.3906C18.9727 14.1562 18.668 14.8711 18.2695 15.5352C17.8711 16.1992 17.4023 16.8086 16.8633 17.3633C16.3242 17.918 15.7188 18.3867 15.0469 18.7695C14.375 19.1523 13.6562 19.4531 12.8906 19.6719C12.125 19.8906 11.3281 20 10.5 20Z" fill="white"/>
</svg>
