<svg width="20" height="18" viewBox="0 0 20 18" fill="none" xmlns="http://www.w3.org/2000/svg">
<path d="M9.9998 12.6998C11.491 12.6998 12.6998 11.491 12.6998 9.9998C12.6998 8.50864 11.491 7.2998 9.9998 7.2998C8.50864 7.2998 7.2998 8.50864 7.2998 9.9998C7.2998 11.491 8.50864 12.6998 9.9998 12.6998Z" stroke="white" stroke-width="1.5"/>
<path d="M8.0002 17.2H11.9998C14.8087 17.2 16.2136 17.2 17.2225 16.5385C17.6578 16.2532 18.0327 15.885 18.3259 15.4549C19 14.4649 19 13.0852 19 10.3276C19 7.56914 19 6.19034 18.3259 5.20034C18.0328 4.77024 17.6578 4.40204 17.2225 4.11674C16.5745 3.69104 15.7627 3.53894 14.5198 3.48494C13.9267 3.48494 13.4164 3.04394 13.3003 2.47244C13.2116 2.05382 12.981 1.67867 12.6477 1.4104C12.3143 1.14212 11.8985 0.99717 11.4706 1.00004H8.5294C7.6402 1.00004 6.8743 1.61654 6.6997 2.47244C6.5836 3.04394 6.0733 3.48494 5.4802 3.48494C4.2382 3.53894 3.4264 3.69194 2.7775 4.11674C2.34246 4.4021 1.96784 4.7703 1.675 5.20034C1 6.19034 1 7.56914 1 10.3276C1 13.0852 1 14.464 1.6741 15.4549C1.9657 15.8833 2.3401 16.2514 2.7775 16.5385C3.7864 17.2 5.1913 17.2 8.0002 17.2Z" stroke="white" stroke-width="1.5"/>
<path d="M16.2999 7.2998H15.3999" stroke="white" stroke-width="1.5" stroke-linecap="round"/>
</svg>
