<svg width="22" height="22" viewBox="0 0 22 22" fill="none" xmlns="http://www.w3.org/2000/svg">
<path d="M19.354 8.22284L18.5653 5.32913C18.2609 4.21274 18.1087 3.65511 17.7966 3.2341C17.4854 2.81583 17.0627 2.49362 16.5769 2.30434C16.0881 2.11327 15.5105 2.11327 14.3552 2.11327M14.3552 2.11327C14.3552 1.81866 14.2382 1.53612 14.0299 1.3278C13.8216 1.11948 13.539 1.00244 13.2444 1.00244H8.80107C8.50646 1.00244 8.22392 1.11948 8.0156 1.3278C7.80728 1.53612 7.69024 1.81866 7.69024 2.11327M14.3552 2.11327C14.3552 2.40788 14.2382 2.69043 14.0299 2.89875C13.8216 3.10707 13.539 3.2241 13.2444 3.2241H8.80107C8.50646 3.2241 8.22392 3.10707 8.0156 2.89875C7.80728 2.69043 7.69024 2.40788 7.69024 2.11327M2.6915 8.22284L3.48019 5.32913C3.78456 4.21274 3.93674 3.65511 4.24889 3.2341C4.56012 2.81583 4.9828 2.49362 5.46858 2.30434C5.95735 2.11327 6.53498 2.11327 7.69024 2.11327M1.98502 15.9487C1.03192 12.1363 0.555376 10.2312 1.55624 8.94933C2.55598 7.66743 4.52216 7.66743 8.45116 7.66743H13.5943C17.5244 7.66743 19.4884 7.66743 20.4892 8.94933C21.4901 10.2301 21.0136 12.1374 20.0605 15.9487C19.4539 18.3736 19.1518 19.5855 18.2476 20.292C17.3434 20.9974 16.0937 20.9974 13.5943 20.9974H8.45116C5.95179 20.9974 4.70211 20.9974 3.79789 20.292C2.89368 19.5855 2.59042 18.3736 1.98502 15.9487Z" stroke="white" stroke-width="1.5"/>
</svg>
