<svg width="23" height="22" viewBox="0 0 23 22" fill="none" xmlns="http://www.w3.org/2000/svg">
<path d="M7.8703 13.6319H15.2205M7.8703 8.36879H11.5454M13.824 20.3581C18.2173 20.0666 21.716 16.5087 22.0037 12.0424C22.0593 11.1688 22.0593 10.2635 22.0037 9.38983C21.716 4.92461 18.2173 1.36886 13.824 1.07518C12.3066 0.974939 10.7842 0.974939 9.26684 1.07518C4.87353 1.36781 1.37483 4.92461 1.08713 9.39088C1.0315 10.2742 1.0315 11.1602 1.08713 12.0435C1.19213 13.6698 1.9093 15.1761 2.75457 16.4476C3.24493 17.3371 2.92152 18.4476 2.41016 19.4192C2.04265 20.1192 1.85785 20.4687 2.0059 20.7213C2.1529 20.9739 2.48366 20.9823 3.14413 20.9981C4.45142 21.0297 5.33239 20.6592 6.03171 20.1423C6.42757 19.8487 6.62602 19.7023 6.76253 19.6855C6.89903 19.6687 7.16889 19.7802 7.7065 20.0013C8.18951 20.2013 8.75128 20.3244 9.26579 20.3592C10.7621 20.4581 12.3256 20.4581 13.825 20.3592" stroke="white" stroke-width="1.5" stroke-linecap="round" stroke-linejoin="round"/>
</svg>
