<svg width="61" height="61" viewBox="0 0 61 61" fill="none" xmlns="http://www.w3.org/2000/svg">
<path d="M40.7974 25.6323C43.5588 25.6323 45.7974 23.3937 45.7974 20.6323C45.7974 17.8709 43.5588 15.6323 40.7974 15.6323C38.0359 15.6323 35.7974 17.8709 35.7974 20.6323C35.7974 23.3937 38.0359 25.6323 40.7974 25.6323Z" stroke="#1C274C" stroke-width="3.75"/>
<path d="M5.79736 31.8825L10.1763 28.051C12.4545 26.0578 15.8881 26.172 18.0286 28.3125L28.7529 39.0368C30.4709 40.755 33.1754 40.9893 35.1634 39.592L35.9089 39.0683C38.7694 37.0578 42.6396 37.2908 45.2386 39.6298L53.2974 46.8825" stroke="#1C274C" stroke-width="3.75" stroke-linecap="round"/>
<path d="M55.7974 30.6323C55.7974 42.4173 55.7974 48.3101 52.1361 51.9711C48.4751 55.6323 42.5824 55.6323 30.7974 55.6323C19.0122 55.6323 13.1197 55.6323 9.45854 51.9711C5.79736 48.3101 5.79736 42.4173 5.79736 30.6323C5.79736 18.8472 5.79736 12.9546 9.45854 9.2935C13.1197 5.63232 19.0122 5.63232 30.7974 5.63232C42.5824 5.63232 48.4751 5.63232 52.1361 9.2935C54.5706 11.7278 55.3864 15.1487 55.6596 20.6323" stroke="#1C274C" stroke-width="3.75" stroke-linecap="round"/>
</svg>
