<svg width="29" height="29" viewBox="0 0 29 29" fill="none" xmlns="http://www.w3.org/2000/svg">
<g clip-path="url(#clip0_370_2251)">
<path d="M26.9781 21.1698C26.9214 20.9689 26.789 20.7978 26.6086 20.6926C26.4283 20.5874 26.2142 20.5563 26.0114 20.6059L24.0056 21.1456C25.1032 19.5277 25.7687 17.6559 25.9389 15.7081C26.1034 13.8859 25.837 12.0505 25.1611 10.3502C24.4852 8.64999 23.4188 7.13259 22.0481 5.92065C21.8896 5.78959 21.687 5.72409 21.4818 5.73757C21.2767 5.75105 21.0844 5.84249 20.9445 5.99315C20.8036 6.15347 20.7322 6.36311 20.7458 6.57606C20.7594 6.789 20.8569 6.98786 21.017 7.12898C22.1981 8.17156 23.117 9.47774 23.6992 10.9417C24.2814 12.4056 24.5106 13.9861 24.3681 15.5551C24.2297 17.2076 23.6755 18.7983 22.757 20.179L22.5556 18.157C22.5707 18.038 22.5592 17.9172 22.5217 17.8032C22.4842 17.6893 22.4217 17.5851 22.3388 17.4984C22.2559 17.4117 22.1547 17.3446 22.0426 17.302C21.9304 17.2594 21.8102 17.2424 21.6906 17.2522C21.5711 17.262 21.4552 17.2984 21.3515 17.3587C21.2478 17.419 21.1589 17.5017 21.0912 17.6008C21.0236 17.6998 20.9789 17.8128 20.9605 17.9313C20.9421 18.0498 20.9503 18.171 20.9847 18.2859L21.3875 23.4737L26.4222 22.1365C26.6217 22.0781 26.7909 21.945 26.8944 21.7649C26.998 21.5847 27.028 21.3715 26.9781 21.1698Z" fill="#FFF3F3"/>
<path d="M3.47208 13.759C3.57961 13.8269 3.7005 13.8709 3.82653 13.8879C4.03676 13.9155 4.24939 13.8591 4.41829 13.7309C4.5872 13.6027 4.69875 13.4131 4.72875 13.2032C5.06161 10.7456 6.31059 8.5044 8.22559 6.92849C10.1406 5.35257 12.5802 4.55825 15.056 4.70459L13.2515 5.93709C13.1239 6.03328 13.0277 6.16527 12.9753 6.31627C12.9228 6.46728 12.9165 6.63047 12.9571 6.78508C12.9977 6.93969 13.0834 7.07872 13.2032 7.18449C13.3231 7.29026 13.4717 7.35798 13.6301 7.37904C13.8116 7.39563 13.9934 7.35019 14.1457 7.25015L18.4393 4.30181L14.766 0.61237C14.7006 0.512208 14.6138 0.427859 14.5117 0.365447C14.4097 0.303034 14.2951 0.264124 14.1761 0.251541C14.0572 0.238958 13.9369 0.253018 13.8241 0.292701C13.7113 0.332384 13.6087 0.396693 13.5238 0.48096C13.4389 0.565226 13.3739 0.667336 13.3334 0.779876C13.2929 0.892415 13.278 1.01256 13.2897 1.13159C13.3014 1.25062 13.3395 1.36554 13.4012 1.46802C13.4628 1.57049 13.5466 1.65795 13.6463 1.72404L15.0157 3.09348C12.1566 2.95677 9.35023 3.89691 7.15047 5.7283C4.95072 7.55969 3.5175 10.1492 3.13375 12.9857C3.1131 13.1333 3.13379 13.2837 3.19352 13.4202C3.25325 13.5568 3.34968 13.674 3.47208 13.759Z" fill="#FFF3F3"/>
<path d="M17.5047 24.1101C16.2467 24.5119 14.9198 24.6518 13.6058 24.5209C12.0054 24.3641 10.4673 23.8201 9.1242 22.9359C7.78108 22.0517 6.67335 20.8539 5.89662 19.4459L7.90245 20.1951C8.08735 20.2272 8.27764 20.1937 8.44048 20.1004C8.60332 20.0072 8.72849 19.86 8.79438 19.6843C8.86027 19.5085 8.86275 19.3153 8.80139 19.138C8.74003 18.9607 8.61868 18.8103 8.45828 18.7129L4.76078 17.3434L3.57662 16.9165L2.68245 22.0318C2.65145 22.2362 2.70023 22.4447 2.81869 22.6141C2.93715 22.7836 3.11622 22.901 3.31884 22.9421H3.45578C3.64538 22.9455 3.83011 22.882 3.97747 22.7626C4.12482 22.6432 4.22534 22.4757 4.26134 22.2896L4.59967 20.3562C5.51078 21.9523 6.79052 23.3071 8.33203 24.3077C9.87354 25.3083 11.6321 25.9255 13.4608 26.1079C14.9897 26.2596 16.5335 26.0951 17.9961 25.6246C18.1823 25.5474 18.3329 25.4033 18.418 25.2206C18.5032 25.0379 18.5167 24.8299 18.456 24.6377C18.3953 24.4455 18.2648 24.283 18.0901 24.1824C17.9155 24.0817 17.7095 24.0502 17.5127 24.094L17.5047 24.1101Z" fill="#FFF3F3"/>
<path d="M17.7222 10.4722H11.2777C11.0641 10.4722 10.8592 10.557 10.7081 10.7081C10.557 10.8592 10.4722 11.0641 10.4722 11.2777V17.7222C10.4722 17.9358 10.557 18.1407 10.7081 18.2918C10.8592 18.4429 11.0641 18.5277 11.2777 18.5277H17.7222C17.9358 18.5277 18.1407 18.4429 18.2918 18.2918C18.4429 18.1407 18.5277 17.9358 18.5277 17.7222V11.2777C18.5277 11.0641 18.4429 10.8592 18.2918 10.7081C18.1407 10.557 17.9358 10.4722 17.7222 10.4722ZM16.9166 16.9166H12.0833V12.0833H16.9166V16.9166Z" fill="#FFF3F3"/>
</g>
<defs>
<clipPath id="clip0_370_2251">
<rect width="29" height="29" fill="white"/>
</clipPath>
</defs>
</svg>
