<svg width="30" height="30" viewBox="0 0 30 30" fill="none" xmlns="http://www.w3.org/2000/svg">
<path d="M21.75 4.5C22.7446 4.5 23.6984 4.89509 24.4016 5.59835C25.1049 6.30161 25.5 7.25544 25.5 8.25V14.4C25.0204 14.155 24.518 13.9576 24 13.8105V10.5H6V21.75C6 22.3467 6.23705 22.919 6.65901 23.341C7.08097 23.7629 7.65326 24 8.25 24H13.8105C13.9595 24.524 14.156 25.024 14.4 25.5H8.25C7.25544 25.5 6.30161 25.1049 5.59835 24.4016C4.89509 23.6984 4.5 22.7446 4.5 21.75V8.25C4.5 7.25544 4.89509 6.30161 5.59835 5.59835C6.30161 4.89509 7.25544 4.5 8.25 4.5H21.75ZM21.75 6H8.25C7.65326 6 7.08097 6.23705 6.65901 6.65901C6.23705 7.08097 6 7.65326 6 8.25V9H24V8.25C24 7.65326 23.7629 7.08097 23.341 6.65901C22.919 6.23705 22.3467 6 21.75 6ZM28.5 21.75C28.5 23.5402 27.7888 25.2571 26.523 26.523C25.2571 27.7888 23.5402 28.5 21.75 28.5C19.9598 28.5 18.2429 27.7888 16.977 26.523C15.7112 25.2571 15 23.5402 15 21.75C15 19.9598 15.7112 18.2429 16.977 16.977C18.2429 15.7112 19.9598 15 21.75 15C23.5402 15 25.2571 15.7112 26.523 16.977C27.7888 18.2429 28.5 19.9598 28.5 21.75ZM21.75 22.8105L23.469 24.531C23.5387 24.6007 23.6215 24.656 23.7126 24.6938C23.8037 24.7315 23.9014 24.7509 24 24.7509C24.0986 24.7509 24.1963 24.7315 24.2874 24.6938C24.3785 24.656 24.4613 24.6007 24.531 24.531C24.6007 24.4613 24.656 24.3785 24.6938 24.2874C24.7315 24.1963 24.7509 24.0986 24.7509 24C24.7509 23.9014 24.7315 23.8037 24.6938 23.7126C24.656 23.6215 24.6007 23.5387 24.531 23.469L22.8105 21.75L24.531 20.031C24.6718 19.8902 24.7509 19.6992 24.7509 19.5C24.7509 19.3008 24.6718 19.1098 24.531 18.969C24.3902 18.8282 24.1992 18.7491 24 18.7491C23.8008 18.7491 23.6098 18.8282 23.469 18.969L21.75 20.6895L20.031 18.969C19.8902 18.8282 19.6992 18.7491 19.5 18.7491C19.3008 18.7491 19.1098 18.8282 18.969 18.969C18.8282 19.1098 18.7491 19.3008 18.7491 19.5C18.7491 19.6992 18.8282 19.8902 18.969 20.031L20.6895 21.75L18.969 23.469C18.8993 23.5387 18.844 23.6215 18.8062 23.7126C18.7685 23.8037 18.7491 23.9014 18.7491 24C18.7491 24.0986 18.7685 24.1963 18.8062 24.2874C18.844 24.3785 18.8993 24.4613 18.969 24.531C19.0387 24.6007 19.1215 24.656 19.2126 24.6938C19.3037 24.7315 19.4014 24.7509 19.5 24.7509C19.5986 24.7509 19.6963 24.7315 19.7874 24.6938C19.8785 24.656 19.9613 24.6007 20.031 24.531L21.75 22.8105Z" fill="#FFF3F3"/>
</svg>
