<svg width="30" height="30" viewBox="0 0 30 30" fill="none" xmlns="http://www.w3.org/2000/svg">
<path d="M20.828 24.9675L24.6147 21.2634L23.78 20.4328L20.828 23.3248L19.5547 22.0331L18.7187 22.8704L20.828 24.9675ZM6.69333 10.2676H20.6427V8.94281H6.692L6.69333 10.2676ZM21.6667 28C20.1813 28 18.9213 27.4855 17.8867 26.4566C16.8511 25.4286 16.3333 24.1766 16.3333 22.7008C16.3333 21.225 16.8511 19.9726 17.8867 18.9437C18.9222 17.9148 20.1822 17.4008 21.6667 17.4016C23.1511 17.4025 24.4116 17.9165 25.448 18.9437C26.4844 19.9709 27.0018 21.2232 27 22.7008C27 24.1758 26.4827 25.4277 25.448 26.4566C24.4116 27.4855 23.1511 28 21.6667 28ZM3 26.2155V6.14087C3 5.54736 3.20978 5.04217 3.62933 4.6253C4.04889 4.20843 4.55733 4 5.15467 4H22.18C22.7756 4 23.2836 4.20843 23.704 4.6253C24.1236 5.04217 24.3333 5.54736 24.3333 6.14087V14.0155C24.1164 13.936 23.9013 13.868 23.688 13.8114C23.4738 13.7549 23.2444 13.7108 23 13.679V6.14087C23 5.93685 22.9147 5.74961 22.744 5.57916C22.5733 5.4087 22.3849 5.32391 22.1787 5.3248H5.15467C4.94933 5.3248 4.76089 5.40958 4.58933 5.57916C4.41778 5.74873 4.33244 5.93597 4.33333 6.14087V23.9382H12.792C12.8524 24.3003 12.9307 24.6544 13.0267 25.0007C13.1236 25.3469 13.2582 25.6772 13.4307 25.9916L13.3853 26.0367L11.872 24.9424L10.0773 26.2155L8.28267 24.9424L6.488 26.2155L4.692 24.9424L3 26.2155ZM6.69333 20.2539H12.972C13.0218 20.011 13.0831 19.7836 13.156 19.5716C13.2289 19.3597 13.3142 19.1455 13.412 18.9291H6.69333V20.2539ZM6.69333 15.2608H16.44C16.8756 14.919 17.3422 14.6341 17.84 14.4063C18.3378 14.1775 18.8698 14.0208 19.436 13.936H6.692L6.69333 15.2608Z" fill="#FFF3F3"/>
</svg>
